<?xml version="1.0" encoding="utf-8"?>
<svg version="1.1" id="calendar" xmlns="http://www.w3.org/2000/svg" xmlns:xlink="http://www.w3.org/1999/xlink" x="0px" y="0px"
         viewBox="0 0 2592 1728" style="0 0 2592 1728;" xml:space="preserve">
<style type="text/css">
 rect { fill: #00589c; }
 path { fill: #ffffff; }
</style>
<rect x="-1.6" y="1.8" width="2595.1" height="375"/>
<g>
  <!-- Elections Calendar text -->
  <g>
    <path d="M856.6,260.5h41.6v12.2h-27.4v7.8h24.8v11.3h-24.8v8.2h27.8v12.2h-41.9V260.5z"/>
    <path d="M905.9,260.5h14.3v39.1h25v12.6h-39.4V260.5z"/>
    <path d="M951.4,260.5H993v12.2h-27.4v7.8h24.8v11.3h-24.8v8.2h27.8v12.2h-41.9V260.5z"/>
    <path d="M998.5,286.5v-0.1c0-15.1,11.6-26.9,27.3-26.9c10.6,0,17.4,4.4,21.9,10.8l-10.8,8.3c-3-3.7-6.4-6.1-11.3-6.1
                         c-7.2,0-12.3,6.1-12.3,13.7v0.1c0,7.8,5.1,13.8,12.3,13.8c5.4,0,8.6-2.5,11.7-6.3l10.8,7.7c-4.9,6.7-11.4,11.7-22.9,11.7
                         C1010.4,313.2,998.5,301.9,998.5,286.5z"/>
    <path d="M1066.8,273h-15.5v-12.6h45.3V273h-15.5v39.1h-14.3V273z"/>
    <path d="M1103.2,260.5h14.4v51.7h-14.4V260.5z"/>
    <path d="M1125.3,286.5v-0.1c0-14.8,12-26.9,27.9-26.9s27.8,11.9,27.8,26.7v0.1c0,14.8-12,26.9-27.9,26.9
                         S1125.3,301.3,1125.3,286.5z M1166.4,286.5v-0.1c0-7.5-5.4-14-13.3-14c-7.8,0-13.1,6.4-13.1,13.8v0.1c0,7.5,5.4,14,13.2,14
                         C1161.1,300.3,1166.4,293.9,1166.4,286.5z"/>
    <path d="M1188.4,260.5h13.4l21.3,27.3v-27.3h14.2v51.7h-12.6l-22.1-28.4v28.4h-14.2V260.5z"/>
    <path d="M1242.5,304.5l8-9.5c5.1,4.1,10.8,6.2,16.8,6.2c3.8,0,5.9-1.3,5.9-3.5v-0.1c0-2.1-1.7-3.3-8.7-4.9
                         c-11-2.5-19.5-5.6-19.5-16.2v-0.1c0-9.6,7.6-16.5,20-16.5c8.8,0,15.7,2.4,21.3,6.9l-7.2,10.1c-4.7-3.3-9.9-5.1-14.5-5.1
                         c-3.5,0-5.2,1.5-5.2,3.3v0.1c0,2.4,1.8,3.4,8.9,5c11.9,2.6,19.3,6.4,19.3,16.1v0.1c0,10.6-8.3,16.8-20.9,16.8
                         C1257.6,313.1,1248.8,310.2,1242.5,304.5z"/>
    <path d="M1313.2,286.5v-0.1c0-15.1,11.6-26.9,27.3-26.9c10.6,0,17.4,4.4,21.9,10.8l-10.8,8.3c-3-3.7-6.4-6.1-11.3-6.1
                         c-7.2,0-12.3,6.1-12.3,13.7v0.1c0,7.8,5.1,13.8,12.3,13.8c5.4,0,8.6-2.5,11.7-6.3l10.8,7.7c-4.9,6.7-11.4,11.7-22.9,11.7
                         C1325.1,313.2,1313.2,301.9,1313.2,286.5z"/>
    <path d="M1386.4,260.1h13.8l22,52.1h-15.4l-3.8-9.2h-19.9l-3.7,9.2h-15.1L1386.4,260.1z M1398.9,291.8l-5.8-14.7
                         l-5.8,14.7H1398.9z"/>
    <path d="M1427.2,260.5h14.3v39.1h25v12.6h-39.4V260.5z"/>
    <path d="M1472.7,260.5h41.6v12.2h-27.4v7.8h24.8v11.3h-24.8v8.2h27.8v12.2h-41.9V260.5z"/>
    <path d="M1521.9,260.5h13.4l21.3,27.3v-27.3h14.2v51.7h-12.6l-22.1-28.4v28.4h-14.2V260.5z"/>
    <path d="M1579.9,260.5h19.9c18.5,0,29.2,10.6,29.2,25.6v0.1c0,14.9-10.9,26-29.5,26h-19.6V260.5z M1600.1,299.5
                         c8.6,0,14.3-4.7,14.3-13.1v-0.1c0-8.3-5.7-13.1-14.3-13.1h-5.8v26.3H1600.1z"/>
    <path d="M1650.6,260.1h13.8l22,52.1h-15.4l-3.8-9.2h-19.9l-3.7,9.2h-15.1L1650.6,260.1z M1663.2,291.8l-5.8-14.7
                         l-5.8,14.7H1663.2z"/>
    <path d="M1691.4,260.5h24.4c7.9,0,13.4,2.1,16.8,5.6c3,3,4.6,6.9,4.6,12v0.1c0,7.9-4.2,13.1-10.6,15.9l12.3,18h-16.5
                         l-10.4-15.7h-0.1h-6.1v15.7h-14.3V260.5z M1715.2,285.3c4.9,0,7.7-2.4,7.7-6.1V279c0-4.1-3-6.1-7.8-6.1h-9.4v12.4H1715.2z"/>
  </g>
  <!-- Circle D logo -->

  <g>
    <path d="M1295,157.3c11.6,0,19.3-6.4,19.3-17.7v-0.2c0-11.2-7.7-17.7-19.3-17.7h-7.9v35.7H1295z M1267.6,104.4h27.1
             c25.1,0,39.6,14.4,39.6,34.7v0.2c0,20.2-14.7,35.3-40,35.3h-26.7V104.4z"/>
    <path d="M1296,75.7c-35.2,0-63.8,28.6-63.8,63.8c0,35.2,28.6,63.8,63.8,63.8c35.2,0,63.8-28.6,63.8-63.8
             C1359.8,104.3,1331.2,75.7,1296,75.7 M1296,225.3c-47.3,0-85.9-38.5-85.9-85.9s38.5-85.9,85.9-85.9c47.3,0,85.9,38.5,85.9,85.9
             S1343.3,225.3,1296,225.3"/>
  </g>
</g>
</svg>
